<mxfile host="app.diagrams.net" agent="Mozilla/5.0 (X11; Linux x86_64; rv:133.0) Gecko/20100101 Firefox/133.0" version="25.0.3">
  <diagram name="Page-1" id="EHbDZYoHjk3vQe8Ejhvv">
    <mxGraphModel dx="2506" dy="419" grid="1" gridSize="10" guides="1" tooltips="1" connect="1" arrows="1" fold="1" page="1" pageScale="1" pageWidth="850" pageHeight="1100" math="0" shadow="0">
      <root>
        <mxCell id="0" />
        <mxCell id="1" parent="0" />
        <mxCell id="3pYKi4AClHYdLQsbnEup-156" style="edgeStyle=orthogonalEdgeStyle;shape=connector;rounded=0;orthogonalLoop=1;jettySize=auto;html=1;exitX=0.25;exitY=0;exitDx=0;exitDy=0;strokeColor=default;align=center;verticalAlign=middle;fontFamily=Helvetica;fontSize=11;fontColor=default;labelBackgroundColor=default;endArrow=none;endFill=0;" parent="1" edge="1">
          <mxGeometry relative="1" as="geometry">
            <mxPoint x="-515.05" y="370" as="targetPoint" />
            <mxPoint x="-515.0799999999999" y="400" as="sourcePoint" />
            <Array as="points">
              <mxPoint x="-515.0799999999999" y="380" />
              <mxPoint x="-515.0799999999999" y="380" />
            </Array>
          </mxGeometry>
        </mxCell>
        <mxCell id="3pYKi4AClHYdLQsbnEup-157" value="" style="ellipse;whiteSpace=wrap;html=1;aspect=fixed;fontFamily=Helvetica;fontSize=11;fontColor=default;labelBackgroundColor=default;fillColor=#000000;" parent="1" vertex="1">
          <mxGeometry x="-520" y="360" width="10" height="10" as="geometry" />
        </mxCell>
        <mxCell id="3pYKi4AClHYdLQsbnEup-222" value="" style="ellipse;whiteSpace=wrap;html=1;aspect=fixed;fontFamily=Helvetica;fontSize=11;fontColor=default;labelBackgroundColor=default;" parent="1" vertex="1">
          <mxGeometry x="-490" y="360" width="10" height="10" as="geometry" />
        </mxCell>
        <mxCell id="3pYKi4AClHYdLQsbnEup-223" style="edgeStyle=orthogonalEdgeStyle;shape=connector;rounded=0;orthogonalLoop=1;jettySize=auto;html=1;exitX=0.25;exitY=0;exitDx=0;exitDy=0;strokeColor=default;align=center;verticalAlign=middle;fontFamily=Helvetica;fontSize=11;fontColor=default;labelBackgroundColor=default;endArrow=none;endFill=0;" parent="1" edge="1">
          <mxGeometry relative="1" as="geometry">
            <mxPoint x="-484.94999999999993" y="370" as="targetPoint" />
            <mxPoint x="-484.9799999999999" y="400" as="sourcePoint" />
            <Array as="points">
              <mxPoint x="-484.9799999999999" y="380" />
              <mxPoint x="-484.9799999999999" y="380" />
            </Array>
          </mxGeometry>
        </mxCell>
        <mxCell id="3pYKi4AClHYdLQsbnEup-246" style="edgeStyle=orthogonalEdgeStyle;shape=connector;rounded=0;orthogonalLoop=1;jettySize=auto;html=1;entryX=1;entryY=0.5;entryDx=0;entryDy=0;strokeColor=default;align=center;verticalAlign=middle;fontFamily=Helvetica;fontSize=11;fontColor=default;labelBackgroundColor=default;endArrow=none;endFill=0;" parent="1" source="3pYKi4AClHYdLQsbnEup-224" target="3pYKi4AClHYdLQsbnEup-228" edge="1">
          <mxGeometry relative="1" as="geometry" />
        </mxCell>
        <mxCell id="3pYKi4AClHYdLQsbnEup-326" style="edgeStyle=orthogonalEdgeStyle;shape=connector;rounded=0;orthogonalLoop=1;jettySize=auto;html=1;entryX=0.5;entryY=1;entryDx=0;entryDy=0;strokeColor=default;align=center;verticalAlign=middle;fontFamily=Helvetica;fontSize=11;fontColor=default;labelBackgroundColor=default;endArrow=none;endFill=0;" parent="1" source="3pYKi4AClHYdLQsbnEup-224" target="3pYKi4AClHYdLQsbnEup-288" edge="1">
          <mxGeometry relative="1" as="geometry" />
        </mxCell>
        <mxCell id="3pYKi4AClHYdLQsbnEup-224" value="Ordine" style="whiteSpace=wrap;html=1;align=center;" parent="1" vertex="1">
          <mxGeometry x="-520" y="400" width="100" height="40" as="geometry" />
        </mxCell>
        <mxCell id="3pYKi4AClHYdLQsbnEup-260" style="edgeStyle=orthogonalEdgeStyle;shape=connector;rounded=0;orthogonalLoop=1;jettySize=auto;html=1;strokeColor=default;align=center;verticalAlign=middle;fontFamily=Helvetica;fontSize=11;fontColor=default;labelBackgroundColor=default;endArrow=none;endFill=0;" parent="1" edge="1">
          <mxGeometry relative="1" as="geometry">
            <mxPoint x="-810" y="405" as="targetPoint" />
            <mxPoint x="-780" y="405" as="sourcePoint" />
          </mxGeometry>
        </mxCell>
        <mxCell id="3pYKi4AClHYdLQsbnEup-225" value="Spedizione" style="whiteSpace=wrap;html=1;align=center;" parent="1" vertex="1">
          <mxGeometry x="-780" y="400" width="100" height="40" as="geometry" />
        </mxCell>
        <mxCell id="3pYKi4AClHYdLQsbnEup-226" value="Corriere" style="whiteSpace=wrap;html=1;align=center;" parent="1" vertex="1">
          <mxGeometry x="-640" y="240" width="100" height="40" as="geometry" />
        </mxCell>
        <mxCell id="3pYKi4AClHYdLQsbnEup-247" style="edgeStyle=orthogonalEdgeStyle;shape=connector;rounded=0;orthogonalLoop=1;jettySize=auto;html=1;entryX=1;entryY=0.5;entryDx=0;entryDy=0;strokeColor=default;align=center;verticalAlign=middle;fontFamily=Helvetica;fontSize=11;fontColor=default;labelBackgroundColor=default;endArrow=none;endFill=0;" parent="1" source="3pYKi4AClHYdLQsbnEup-228" target="3pYKi4AClHYdLQsbnEup-225" edge="1">
          <mxGeometry relative="1" as="geometry" />
        </mxCell>
        <mxCell id="3pYKi4AClHYdLQsbnEup-228" value="Forma" style="shape=rhombus;perimeter=rhombusPerimeter;whiteSpace=wrap;html=1;align=center;" parent="1" vertex="1">
          <mxGeometry x="-640" y="390" width="80" height="60" as="geometry" />
        </mxCell>
        <mxCell id="3pYKi4AClHYdLQsbnEup-229" value="CodiceOrdine" style="text;html=1;align=center;verticalAlign=middle;resizable=0;points=[];autosize=1;strokeColor=none;fillColor=none;fontFamily=Helvetica;fontSize=11;fontColor=default;labelBackgroundColor=default;" parent="1" vertex="1">
          <mxGeometry x="-580" y="330" width="90" height="30" as="geometry" />
        </mxCell>
        <mxCell id="3pYKi4AClHYdLQsbnEup-230" value="Data" style="text;html=1;align=center;verticalAlign=middle;resizable=0;points=[];autosize=1;strokeColor=none;fillColor=none;fontFamily=Helvetica;fontSize=11;fontColor=default;labelBackgroundColor=default;" parent="1" vertex="1">
          <mxGeometry x="-510" y="330" width="50" height="30" as="geometry" />
        </mxCell>
        <mxCell id="3pYKi4AClHYdLQsbnEup-235" value="Stato" style="text;html=1;align=center;verticalAlign=middle;resizable=0;points=[];autosize=1;strokeColor=none;fillColor=none;fontFamily=Helvetica;fontSize=11;fontColor=default;labelBackgroundColor=default;" parent="1" vertex="1">
          <mxGeometry x="-450" y="330" width="50" height="30" as="geometry" />
        </mxCell>
        <mxCell id="3pYKi4AClHYdLQsbnEup-236" value="" style="ellipse;whiteSpace=wrap;html=1;aspect=fixed;fontFamily=Helvetica;fontSize=11;fontColor=default;labelBackgroundColor=default;" parent="1" vertex="1">
          <mxGeometry x="-460" y="360" width="10" height="10" as="geometry" />
        </mxCell>
        <mxCell id="3pYKi4AClHYdLQsbnEup-237" style="edgeStyle=orthogonalEdgeStyle;shape=connector;rounded=0;orthogonalLoop=1;jettySize=auto;html=1;exitX=0.25;exitY=0;exitDx=0;exitDy=0;strokeColor=default;align=center;verticalAlign=middle;fontFamily=Helvetica;fontSize=11;fontColor=default;labelBackgroundColor=default;endArrow=none;endFill=0;" parent="1" edge="1">
          <mxGeometry relative="1" as="geometry">
            <mxPoint x="-454.94999999999993" y="370" as="targetPoint" />
            <mxPoint x="-454.9799999999999" y="400" as="sourcePoint" />
            <Array as="points">
              <mxPoint x="-454.9799999999999" y="380" />
              <mxPoint x="-454.9799999999999" y="380" />
            </Array>
          </mxGeometry>
        </mxCell>
        <mxCell id="3pYKi4AClHYdLQsbnEup-240" value="Ora" style="text;html=1;align=center;verticalAlign=middle;resizable=0;points=[];autosize=1;strokeColor=none;fillColor=none;fontFamily=Helvetica;fontSize=11;fontColor=default;labelBackgroundColor=default;" parent="1" vertex="1">
          <mxGeometry x="-475" y="330" width="40" height="30" as="geometry" />
        </mxCell>
        <mxCell id="3pYKi4AClHYdLQsbnEup-249" style="edgeStyle=orthogonalEdgeStyle;shape=connector;rounded=0;orthogonalLoop=1;jettySize=auto;html=1;entryX=0;entryY=0.5;entryDx=0;entryDy=0;strokeColor=default;align=center;verticalAlign=middle;fontFamily=Helvetica;fontSize=11;fontColor=default;labelBackgroundColor=default;endArrow=none;endFill=0;exitX=0.5;exitY=0;exitDx=0;exitDy=0;" parent="1" source="3pYKi4AClHYdLQsbnEup-248" target="3pYKi4AClHYdLQsbnEup-226" edge="1">
          <mxGeometry relative="1" as="geometry" />
        </mxCell>
        <mxCell id="3pYKi4AClHYdLQsbnEup-250" style="edgeStyle=orthogonalEdgeStyle;shape=connector;rounded=0;orthogonalLoop=1;jettySize=auto;html=1;exitX=0.5;exitY=1;exitDx=0;exitDy=0;entryX=0.5;entryY=0;entryDx=0;entryDy=0;strokeColor=default;align=center;verticalAlign=middle;fontFamily=Helvetica;fontSize=11;fontColor=default;labelBackgroundColor=default;endArrow=none;endFill=0;" parent="1" source="3pYKi4AClHYdLQsbnEup-248" target="3pYKi4AClHYdLQsbnEup-225" edge="1">
          <mxGeometry relative="1" as="geometry" />
        </mxCell>
        <mxCell id="3pYKi4AClHYdLQsbnEup-248" value="Consegna" style="shape=rhombus;perimeter=rhombusPerimeter;whiteSpace=wrap;html=1;align=center;" parent="1" vertex="1">
          <mxGeometry x="-770" y="290" width="80" height="60" as="geometry" />
        </mxCell>
        <mxCell id="3pYKi4AClHYdLQsbnEup-251" style="edgeStyle=orthogonalEdgeStyle;shape=connector;rounded=0;orthogonalLoop=1;jettySize=auto;html=1;exitX=0.25;exitY=0;exitDx=0;exitDy=0;strokeColor=default;align=center;verticalAlign=middle;fontFamily=Helvetica;fontSize=11;fontColor=default;labelBackgroundColor=default;endArrow=none;endFill=0;" parent="1" edge="1">
          <mxGeometry relative="1" as="geometry">
            <mxPoint x="-625.05" y="210" as="targetPoint" />
            <mxPoint x="-625.0799999999999" y="240" as="sourcePoint" />
            <Array as="points">
              <mxPoint x="-625.0799999999999" y="220" />
              <mxPoint x="-625.0799999999999" y="220" />
            </Array>
          </mxGeometry>
        </mxCell>
        <mxCell id="3pYKi4AClHYdLQsbnEup-252" value="" style="ellipse;whiteSpace=wrap;html=1;aspect=fixed;fontFamily=Helvetica;fontSize=11;fontColor=default;labelBackgroundColor=default;fillColor=#000000;" parent="1" vertex="1">
          <mxGeometry x="-630" y="200" width="10" height="10" as="geometry" />
        </mxCell>
        <mxCell id="3pYKi4AClHYdLQsbnEup-253" value="NomeCorriere" style="text;html=1;align=center;verticalAlign=middle;resizable=0;points=[];autosize=1;strokeColor=none;fillColor=none;fontFamily=Helvetica;fontSize=11;fontColor=default;labelBackgroundColor=default;" parent="1" vertex="1">
          <mxGeometry x="-680" y="170" width="100" height="30" as="geometry" />
        </mxCell>
        <mxCell id="3pYKi4AClHYdLQsbnEup-257" style="edgeStyle=orthogonalEdgeStyle;shape=connector;rounded=0;orthogonalLoop=1;jettySize=auto;html=1;exitX=0.25;exitY=0;exitDx=0;exitDy=0;strokeColor=default;align=center;verticalAlign=middle;fontFamily=Helvetica;fontSize=11;fontColor=default;labelBackgroundColor=default;endArrow=none;endFill=0;" parent="1" edge="1">
          <mxGeometry relative="1" as="geometry">
            <mxPoint x="-765.02" y="440" as="targetPoint" />
            <mxPoint x="-765.05" y="470" as="sourcePoint" />
            <Array as="points">
              <mxPoint x="-765.07" y="450" />
              <mxPoint x="-765.07" y="450" />
            </Array>
          </mxGeometry>
        </mxCell>
        <mxCell id="3pYKi4AClHYdLQsbnEup-258" value="" style="ellipse;whiteSpace=wrap;html=1;aspect=fixed;fontFamily=Helvetica;fontSize=11;fontColor=default;labelBackgroundColor=default;" parent="1" vertex="1">
          <mxGeometry x="-770" y="470" width="10" height="10" as="geometry" />
        </mxCell>
        <mxCell id="3pYKi4AClHYdLQsbnEup-259" value="" style="ellipse;whiteSpace=wrap;html=1;aspect=fixed;fontFamily=Helvetica;fontSize=11;fontColor=default;labelBackgroundColor=default;fillColor=#000000;" parent="1" vertex="1">
          <mxGeometry x="-820" y="400" width="10" height="10" as="geometry" />
        </mxCell>
        <mxCell id="3pYKi4AClHYdLQsbnEup-263" style="edgeStyle=orthogonalEdgeStyle;shape=connector;rounded=0;orthogonalLoop=1;jettySize=auto;html=1;exitX=0.25;exitY=0;exitDx=0;exitDy=0;strokeColor=default;align=center;verticalAlign=middle;fontFamily=Helvetica;fontSize=11;fontColor=default;labelBackgroundColor=default;endArrow=none;endFill=0;" parent="1" edge="1">
          <mxGeometry relative="1" as="geometry">
            <mxPoint x="-695.02" y="440" as="targetPoint" />
            <mxPoint x="-695.05" y="470" as="sourcePoint" />
            <Array as="points">
              <mxPoint x="-695.07" y="450" />
              <mxPoint x="-695.07" y="450" />
            </Array>
          </mxGeometry>
        </mxCell>
        <mxCell id="3pYKi4AClHYdLQsbnEup-264" value="" style="ellipse;whiteSpace=wrap;html=1;aspect=fixed;fontFamily=Helvetica;fontSize=11;fontColor=default;labelBackgroundColor=default;" parent="1" vertex="1">
          <mxGeometry x="-700" y="470" width="10" height="10" as="geometry" />
        </mxCell>
        <mxCell id="3pYKi4AClHYdLQsbnEup-265" value="CodiceSpedizione" style="text;html=1;align=center;verticalAlign=middle;resizable=0;points=[];autosize=1;strokeColor=none;fillColor=none;fontFamily=Helvetica;fontSize=11;fontColor=default;labelBackgroundColor=default;" parent="1" vertex="1">
          <mxGeometry x="-930" y="390" width="120" height="30" as="geometry" />
        </mxCell>
        <mxCell id="3pYKi4AClHYdLQsbnEup-266" value="DataConsegna" style="text;html=1;align=center;verticalAlign=middle;resizable=0;points=[];autosize=1;strokeColor=none;fillColor=none;fontFamily=Helvetica;fontSize=11;fontColor=default;labelBackgroundColor=default;" parent="1" vertex="1">
          <mxGeometry x="-825" y="478" width="100" height="30" as="geometry" />
        </mxCell>
        <mxCell id="3pYKi4AClHYdLQsbnEup-267" value="DataSpedizione" style="text;html=1;align=center;verticalAlign=middle;resizable=0;points=[];autosize=1;strokeColor=none;fillColor=none;fontFamily=Helvetica;fontSize=11;fontColor=default;labelBackgroundColor=default;" parent="1" vertex="1">
          <mxGeometry x="-745" y="478" width="100" height="30" as="geometry" />
        </mxCell>
        <mxCell id="3pYKi4AClHYdLQsbnEup-268" style="edgeStyle=orthogonalEdgeStyle;shape=connector;rounded=0;orthogonalLoop=1;jettySize=auto;html=1;strokeColor=default;align=center;verticalAlign=middle;fontFamily=Helvetica;fontSize=11;fontColor=default;labelBackgroundColor=default;endArrow=none;endFill=0;" parent="1" edge="1">
          <mxGeometry relative="1" as="geometry">
            <mxPoint x="-810" y="434.88" as="targetPoint" />
            <mxPoint x="-780" y="434.88" as="sourcePoint" />
          </mxGeometry>
        </mxCell>
        <mxCell id="3pYKi4AClHYdLQsbnEup-269" value="" style="ellipse;whiteSpace=wrap;html=1;aspect=fixed;fontFamily=Helvetica;fontSize=11;fontColor=default;labelBackgroundColor=default;" parent="1" vertex="1">
          <mxGeometry x="-820" y="430" width="10" height="10" as="geometry" />
        </mxCell>
        <mxCell id="3pYKi4AClHYdLQsbnEup-270" value="Stato" style="text;html=1;align=center;verticalAlign=middle;resizable=0;points=[];autosize=1;strokeColor=none;fillColor=none;fontFamily=Helvetica;fontSize=11;fontColor=default;labelBackgroundColor=default;" parent="1" vertex="1">
          <mxGeometry x="-875" y="420" width="50" height="30" as="geometry" />
        </mxCell>
        <mxCell id="3pYKi4AClHYdLQsbnEup-275" value="(1:1)" style="text;html=1;align=center;verticalAlign=middle;resizable=0;points=[];autosize=1;strokeColor=none;fillColor=none;fontFamily=Helvetica;fontSize=11;fontColor=default;labelBackgroundColor=default;fontStyle=1" parent="1" vertex="1">
          <mxGeometry x="-570" y="390" width="50" height="30" as="geometry" />
        </mxCell>
        <mxCell id="3pYKi4AClHYdLQsbnEup-276" value="(1:N)" style="text;html=1;align=center;verticalAlign=middle;resizable=0;points=[];autosize=1;strokeColor=none;fillColor=none;fontFamily=Helvetica;fontSize=11;fontColor=default;labelBackgroundColor=default;fontStyle=1" parent="1" vertex="1">
          <mxGeometry x="-680" y="390" width="50" height="30" as="geometry" />
        </mxCell>
        <mxCell id="3pYKi4AClHYdLQsbnEup-277" value="(1:N)" style="text;html=1;align=center;verticalAlign=middle;resizable=0;points=[];autosize=1;strokeColor=none;fillColor=none;fontFamily=Helvetica;fontSize=11;fontColor=default;labelBackgroundColor=default;fontStyle=1" parent="1" vertex="1">
          <mxGeometry x="-780" y="260" width="50" height="30" as="geometry" />
        </mxCell>
        <mxCell id="3pYKi4AClHYdLQsbnEup-278" value="(1:1)" style="text;html=1;align=center;verticalAlign=middle;resizable=0;points=[];autosize=1;strokeColor=none;fillColor=none;fontFamily=Helvetica;fontSize=11;fontColor=default;labelBackgroundColor=default;fontStyle=1" parent="1" vertex="1">
          <mxGeometry x="-780" y="350" width="50" height="30" as="geometry" />
        </mxCell>
        <mxCell id="3pYKi4AClHYdLQsbnEup-286" value="" style="ellipse;whiteSpace=wrap;html=1;aspect=fixed;fontFamily=Helvetica;fontSize=11;fontColor=default;labelBackgroundColor=default;" parent="1" vertex="1">
          <mxGeometry x="-430" y="360" width="10" height="10" as="geometry" />
        </mxCell>
        <mxCell id="3pYKi4AClHYdLQsbnEup-287" style="edgeStyle=orthogonalEdgeStyle;shape=connector;rounded=0;orthogonalLoop=1;jettySize=auto;html=1;exitX=0.25;exitY=0;exitDx=0;exitDy=0;strokeColor=default;align=center;verticalAlign=middle;fontFamily=Helvetica;fontSize=11;fontColor=default;labelBackgroundColor=default;endArrow=none;endFill=0;" parent="1" edge="1">
          <mxGeometry relative="1" as="geometry">
            <mxPoint x="-424.94999999999993" y="370" as="targetPoint" />
            <mxPoint x="-424.9799999999999" y="400" as="sourcePoint" />
            <Array as="points">
              <mxPoint x="-424.9799999999999" y="380" />
              <mxPoint x="-424.9799999999999" y="380" />
            </Array>
          </mxGeometry>
        </mxCell>
        <mxCell id="3pYKi4AClHYdLQsbnEup-330" style="edgeStyle=orthogonalEdgeStyle;shape=connector;rounded=0;orthogonalLoop=1;jettySize=auto;html=1;exitX=1;exitY=0.5;exitDx=0;exitDy=0;strokeColor=default;align=center;verticalAlign=middle;fontFamily=Helvetica;fontSize=11;fontColor=default;labelBackgroundColor=default;endArrow=none;endFill=0;entryX=0;entryY=0.5;entryDx=0;entryDy=0;" parent="1" source="3pYKi4AClHYdLQsbnEup-288" target="3pYKi4AClHYdLQsbnEup-331" edge="1">
          <mxGeometry relative="1" as="geometry">
            <mxPoint x="-170" y="370" as="targetPoint" />
          </mxGeometry>
        </mxCell>
        <mxCell id="3pYKi4AClHYdLQsbnEup-333" style="edgeStyle=orthogonalEdgeStyle;shape=connector;rounded=0;orthogonalLoop=1;jettySize=auto;html=1;entryX=0.5;entryY=1;entryDx=0;entryDy=0;strokeColor=default;align=center;verticalAlign=middle;fontFamily=Helvetica;fontSize=11;fontColor=default;labelBackgroundColor=default;endArrow=none;endFill=0;" parent="1" source="3pYKi4AClHYdLQsbnEup-288" target="3pYKi4AClHYdLQsbnEup-302" edge="1">
          <mxGeometry relative="1" as="geometry" />
        </mxCell>
        <mxCell id="iPl97-iuTuUOuG-nTpkM-3" style="edgeStyle=orthogonalEdgeStyle;rounded=0;orthogonalLoop=1;jettySize=auto;html=1;endArrow=none;endFill=0;" parent="1" source="3pYKi4AClHYdLQsbnEup-288" edge="1">
          <mxGeometry relative="1" as="geometry">
            <mxPoint x="-320" y="345" as="targetPoint" />
          </mxGeometry>
        </mxCell>
        <mxCell id="3pYKi4AClHYdLQsbnEup-288" value="&lt;font style=&quot;font-size: 10px;&quot;&gt;DettaglioOrdine&lt;/font&gt;" style="shape=rhombus;perimeter=rhombusPerimeter;whiteSpace=wrap;html=1;align=center;" parent="1" vertex="1">
          <mxGeometry x="-280" y="315" width="80" height="60" as="geometry" />
        </mxCell>
        <mxCell id="3pYKi4AClHYdLQsbnEup-291" style="edgeStyle=orthogonalEdgeStyle;shape=connector;rounded=0;orthogonalLoop=1;jettySize=auto;html=1;strokeColor=default;align=center;verticalAlign=middle;fontFamily=Helvetica;fontSize=11;fontColor=default;labelBackgroundColor=default;endArrow=none;endFill=0;" parent="1" edge="1">
          <mxGeometry relative="1" as="geometry">
            <mxPoint x="-325" y="200.74" as="targetPoint" />
            <mxPoint x="-290" y="200.74" as="sourcePoint" />
          </mxGeometry>
        </mxCell>
        <mxCell id="3pYKi4AClHYdLQsbnEup-292" style="edgeStyle=orthogonalEdgeStyle;shape=connector;rounded=0;orthogonalLoop=1;jettySize=auto;html=1;exitX=0;exitY=0.5;exitDx=0;exitDy=0;strokeColor=default;align=center;verticalAlign=middle;fontFamily=Helvetica;fontSize=11;fontColor=default;labelBackgroundColor=default;endArrow=none;endFill=0;" parent="1" edge="1">
          <mxGeometry relative="1" as="geometry">
            <mxPoint x="-325" y="215.04651162790697" as="targetPoint" />
            <mxPoint x="-290" y="215" as="sourcePoint" />
          </mxGeometry>
        </mxCell>
        <mxCell id="3pYKi4AClHYdLQsbnEup-293" style="edgeStyle=orthogonalEdgeStyle;shape=connector;rounded=0;orthogonalLoop=1;jettySize=auto;html=1;exitX=0;exitY=0.75;exitDx=0;exitDy=0;strokeColor=default;align=center;verticalAlign=middle;fontFamily=Helvetica;fontSize=11;fontColor=default;labelBackgroundColor=default;endArrow=none;endFill=0;" parent="1" edge="1">
          <mxGeometry relative="1" as="geometry">
            <mxPoint x="-325" y="230.04651162790697" as="targetPoint" />
            <mxPoint x="-290" y="230" as="sourcePoint" />
          </mxGeometry>
        </mxCell>
        <mxCell id="3pYKi4AClHYdLQsbnEup-294" style="edgeStyle=orthogonalEdgeStyle;shape=connector;rounded=0;orthogonalLoop=1;jettySize=auto;html=1;strokeColor=default;align=center;verticalAlign=middle;fontFamily=Helvetica;fontSize=11;fontColor=default;labelBackgroundColor=default;endArrow=none;endFill=0;entryX=0;entryY=0.5;entryDx=0;entryDy=0;" parent="1" target="3pYKi4AClHYdLQsbnEup-295" edge="1">
          <mxGeometry relative="1" as="geometry">
            <mxPoint x="-165" y="205" as="targetPoint" />
            <mxPoint x="-190" y="204.99999999999977" as="sourcePoint" />
          </mxGeometry>
        </mxCell>
        <mxCell id="3pYKi4AClHYdLQsbnEup-295" value="" style="ellipse;whiteSpace=wrap;html=1;aspect=fixed;fontFamily=Helvetica;fontSize=11;fontColor=default;labelBackgroundColor=default;fillColor=none;" parent="1" vertex="1">
          <mxGeometry x="-160" y="200" width="10" height="10" as="geometry" />
        </mxCell>
        <mxCell id="3pYKi4AClHYdLQsbnEup-296" value="" style="ellipse;whiteSpace=wrap;html=1;aspect=fixed;fontFamily=Helvetica;fontSize=11;fontColor=default;labelBackgroundColor=default;fillColor=#0A0A0A;" parent="1" vertex="1">
          <mxGeometry x="-335" y="195" width="10" height="10" as="geometry" />
        </mxCell>
        <mxCell id="3pYKi4AClHYdLQsbnEup-297" value="" style="ellipse;whiteSpace=wrap;html=1;aspect=fixed;fontFamily=Helvetica;fontSize=11;fontColor=default;labelBackgroundColor=default;fillColor=none;" parent="1" vertex="1">
          <mxGeometry x="-335" y="210" width="10" height="10" as="geometry" />
        </mxCell>
        <mxCell id="3pYKi4AClHYdLQsbnEup-298" value="Nome" style="text;html=1;align=center;verticalAlign=middle;resizable=0;points=[];autosize=1;strokeColor=none;fillColor=none;fontFamily=Helvetica;fontSize=11;fontColor=default;labelBackgroundColor=default;" parent="1" vertex="1">
          <mxGeometry x="-395" y="201.5" width="50" height="30" as="geometry" />
        </mxCell>
        <mxCell id="3pYKi4AClHYdLQsbnEup-299" value="" style="ellipse;whiteSpace=wrap;html=1;aspect=fixed;fontFamily=Helvetica;fontSize=11;fontColor=default;labelBackgroundColor=default;fillColor=none;" parent="1" vertex="1">
          <mxGeometry x="-335" y="225" width="10" height="10" as="geometry" />
        </mxCell>
        <mxCell id="3pYKi4AClHYdLQsbnEup-300" value="Categoria" style="text;html=1;align=center;verticalAlign=middle;resizable=0;points=[];autosize=1;strokeColor=none;fillColor=none;fontFamily=Helvetica;fontSize=11;fontColor=default;labelBackgroundColor=default;" parent="1" vertex="1">
          <mxGeometry x="-405" y="215" width="70" height="30" as="geometry" />
        </mxCell>
        <mxCell id="3pYKi4AClHYdLQsbnEup-301" value="PrezzoAcquisto" style="text;html=1;align=center;verticalAlign=middle;resizable=0;points=[];autosize=1;strokeColor=none;fillColor=none;fontFamily=Helvetica;fontSize=11;fontColor=default;labelBackgroundColor=default;" parent="1" vertex="1">
          <mxGeometry x="-150" y="190" width="100" height="30" as="geometry" />
        </mxCell>
        <mxCell id="3pYKi4AClHYdLQsbnEup-302" value="&lt;div&gt;Prodotto&lt;/div&gt;" style="whiteSpace=wrap;html=1;align=center;" parent="1" vertex="1">
          <mxGeometry x="-290" y="195" width="100" height="40" as="geometry" />
        </mxCell>
        <mxCell id="3pYKi4AClHYdLQsbnEup-303" style="edgeStyle=orthogonalEdgeStyle;shape=connector;rounded=0;orthogonalLoop=1;jettySize=auto;html=1;exitX=0.25;exitY=0;exitDx=0;exitDy=0;strokeColor=default;align=center;verticalAlign=middle;fontFamily=Helvetica;fontSize=11;fontColor=default;labelBackgroundColor=default;endArrow=none;endFill=0;" parent="1" edge="1">
          <mxGeometry relative="1" as="geometry">
            <mxPoint x="-202.40999999999997" y="165" as="targetPoint" />
            <mxPoint x="-202.57999999999993" y="195" as="sourcePoint" />
            <Array as="points">
              <mxPoint x="-202.40999999999997" y="185" />
              <mxPoint x="-202.40999999999997" y="185" />
            </Array>
          </mxGeometry>
        </mxCell>
        <mxCell id="3pYKi4AClHYdLQsbnEup-304" value="Descrizione" style="text;html=1;align=center;verticalAlign=middle;resizable=0;points=[];autosize=1;strokeColor=none;fillColor=none;fontFamily=Helvetica;fontSize=11;fontColor=default;labelBackgroundColor=default;" parent="1" vertex="1">
          <mxGeometry x="-240" y="125" width="80" height="30" as="geometry" />
        </mxCell>
        <mxCell id="3pYKi4AClHYdLQsbnEup-305" value="" style="ellipse;whiteSpace=wrap;html=1;aspect=fixed;fontFamily=Helvetica;fontSize=11;fontColor=default;labelBackgroundColor=default;fillColor=none;" parent="1" vertex="1">
          <mxGeometry x="-207.5" y="155" width="10" height="10" as="geometry" />
        </mxCell>
        <mxCell id="3pYKi4AClHYdLQsbnEup-306" style="edgeStyle=orthogonalEdgeStyle;shape=connector;rounded=0;orthogonalLoop=1;jettySize=auto;html=1;strokeColor=default;align=center;verticalAlign=middle;fontFamily=Helvetica;fontSize=11;fontColor=default;labelBackgroundColor=default;endArrow=none;endFill=0;entryX=0;entryY=0.5;entryDx=0;entryDy=0;" parent="1" target="3pYKi4AClHYdLQsbnEup-307" edge="1">
          <mxGeometry relative="1" as="geometry">
            <mxPoint x="-165" y="231" as="targetPoint" />
            <mxPoint x="-190" y="230.99999999999977" as="sourcePoint" />
          </mxGeometry>
        </mxCell>
        <mxCell id="3pYKi4AClHYdLQsbnEup-307" value="" style="ellipse;whiteSpace=wrap;html=1;aspect=fixed;fontFamily=Helvetica;fontSize=11;fontColor=default;labelBackgroundColor=default;fillColor=none;" parent="1" vertex="1">
          <mxGeometry x="-160" y="226" width="10" height="10" as="geometry" />
        </mxCell>
        <mxCell id="3pYKi4AClHYdLQsbnEup-308" value="PrezzoVendita" style="text;html=1;align=center;verticalAlign=middle;resizable=0;points=[];autosize=1;strokeColor=none;fillColor=none;fontFamily=Helvetica;fontSize=11;fontColor=default;labelBackgroundColor=default;" parent="1" vertex="1">
          <mxGeometry x="-145" y="216" width="90" height="30" as="geometry" />
        </mxCell>
        <mxCell id="3pYKi4AClHYdLQsbnEup-309" style="edgeStyle=orthogonalEdgeStyle;shape=connector;rounded=0;orthogonalLoop=1;jettySize=auto;html=1;exitX=0.5;exitY=0;exitDx=0;exitDy=0;strokeColor=default;align=center;verticalAlign=middle;fontFamily=Helvetica;fontSize=11;fontColor=default;labelBackgroundColor=default;endArrow=none;endFill=0;" parent="1" edge="1">
          <mxGeometry relative="1" as="geometry">
            <mxPoint x="-250" y="165" as="targetPoint" />
            <mxPoint x="-250" y="195" as="sourcePoint" />
          </mxGeometry>
        </mxCell>
        <mxCell id="3pYKi4AClHYdLQsbnEup-310" value="" style="ellipse;whiteSpace=wrap;html=1;aspect=fixed;fontFamily=Helvetica;fontSize=11;fontColor=default;labelBackgroundColor=default;fillColor=none;" parent="1" vertex="1">
          <mxGeometry x="-255" y="155" width="10" height="10" as="geometry" />
        </mxCell>
        <mxCell id="3pYKi4AClHYdLQsbnEup-311" value="InVendita" style="text;html=1;align=center;verticalAlign=middle;resizable=0;points=[];autosize=1;strokeColor=none;fillColor=none;fontFamily=Helvetica;fontSize=11;fontColor=default;labelBackgroundColor=default;" parent="1" vertex="1">
          <mxGeometry x="-300" y="125" width="70" height="30" as="geometry" />
        </mxCell>
        <mxCell id="3pYKi4AClHYdLQsbnEup-316" value="CodiceBarre" style="text;html=1;align=center;verticalAlign=middle;resizable=0;points=[];autosize=1;strokeColor=none;fillColor=none;fontFamily=Helvetica;fontSize=11;fontColor=default;labelBackgroundColor=default;" parent="1" vertex="1">
          <mxGeometry x="-420" y="185" width="90" height="30" as="geometry" />
        </mxCell>
        <mxCell id="3pYKi4AClHYdLQsbnEup-321" value="(1:N)" style="text;html=1;align=center;verticalAlign=middle;resizable=0;points=[];autosize=1;strokeColor=none;fillColor=none;fontFamily=Helvetica;fontSize=11;fontColor=default;labelBackgroundColor=default;fontStyle=1" parent="1" vertex="1">
          <mxGeometry x="-290" y="375" width="50" height="30" as="geometry" />
        </mxCell>
        <mxCell id="3pYKi4AClHYdLQsbnEup-328" value="(1:N)" style="text;html=1;align=center;verticalAlign=middle;resizable=0;points=[];autosize=1;strokeColor=none;fillColor=none;fontFamily=Helvetica;fontSize=11;fontColor=default;labelBackgroundColor=default;fontStyle=1" parent="1" vertex="1">
          <mxGeometry x="-290" y="285" width="50" height="30" as="geometry" />
        </mxCell>
        <mxCell id="3pYKi4AClHYdLQsbnEup-331" value="" style="ellipse;whiteSpace=wrap;html=1;aspect=fixed;fontFamily=Helvetica;fontSize=11;fontColor=default;labelBackgroundColor=default;fillColor=none;" parent="1" vertex="1">
          <mxGeometry x="-160" y="340" width="10" height="10" as="geometry" />
        </mxCell>
        <mxCell id="3pYKi4AClHYdLQsbnEup-332" value="Quantità" style="text;html=1;align=center;verticalAlign=middle;resizable=0;points=[];autosize=1;strokeColor=none;fillColor=none;fontFamily=Helvetica;fontSize=11;fontColor=default;labelBackgroundColor=default;" parent="1" vertex="1">
          <mxGeometry x="-190" y="345" width="70" height="30" as="geometry" />
        </mxCell>
        <mxCell id="3pYKi4AClHYdLQsbnEup-335" value="TotalePerProdotto" style="text;html=1;align=center;verticalAlign=middle;resizable=0;points=[];autosize=1;strokeColor=none;fillColor=none;fontFamily=Helvetica;fontSize=11;fontColor=default;labelBackgroundColor=default;" parent="1" vertex="1">
          <mxGeometry x="-355" y="350" width="110" height="30" as="geometry" />
        </mxCell>
        <mxCell id="iPl97-iuTuUOuG-nTpkM-4" value="" style="ellipse;whiteSpace=wrap;html=1;aspect=fixed;fontFamily=Helvetica;fontSize=11;fontColor=default;labelBackgroundColor=default;fillColor=none;" parent="1" vertex="1">
          <mxGeometry x="-330" y="340" width="10" height="10" as="geometry" />
        </mxCell>
        <mxCell id="TmIImOf6U2P6CetOlzuZ-1" style="edgeStyle=orthogonalEdgeStyle;shape=connector;rounded=0;orthogonalLoop=1;jettySize=auto;html=1;exitX=0.25;exitY=0;exitDx=0;exitDy=0;strokeColor=default;align=center;verticalAlign=middle;fontFamily=Helvetica;fontSize=11;fontColor=default;labelBackgroundColor=default;endArrow=none;endFill=0;" parent="1" edge="1">
          <mxGeometry relative="1" as="geometry">
            <mxPoint x="-424.94999999999993" y="440" as="targetPoint" />
            <mxPoint x="-424.9799999999999" y="470" as="sourcePoint" />
            <Array as="points">
              <mxPoint x="-424.9799999999999" y="450" />
              <mxPoint x="-424.9799999999999" y="450" />
            </Array>
          </mxGeometry>
        </mxCell>
        <mxCell id="TmIImOf6U2P6CetOlzuZ-2" value="" style="ellipse;whiteSpace=wrap;html=1;aspect=fixed;fontFamily=Helvetica;fontSize=11;fontColor=default;labelBackgroundColor=default;" parent="1" vertex="1">
          <mxGeometry x="-430" y="470" width="10" height="10" as="geometry" />
        </mxCell>
        <mxCell id="TmIImOf6U2P6CetOlzuZ-3" value="Totale" style="text;html=1;align=center;verticalAlign=middle;resizable=0;points=[];autosize=1;strokeColor=none;fillColor=none;" parent="1" vertex="1">
          <mxGeometry x="-455" y="478" width="60" height="30" as="geometry" />
        </mxCell>
      </root>
    </mxGraphModel>
  </diagram>
</mxfile>
